REM DIRINDEX 1\2,1\3,1\4,1\5
REM DIRNAME folder01,folder02,folder03,folder04,folder05
TITLE ""
FILE "1800_084.mp3" MP3
  TRACK 01 AUDIO
    TITLE "2:cjc044_2209"
    INDEX 01 00:00:00
  TRACK 02 AUDIO
    TITLE "0:"
    INDEX 01 00:01:01
  TRACK 03 AUDIO
    TITLE "3:cjc044_2210"
    INDEX 01 00:01:60
  TRACK 04 AUDIO
    TITLE "0:"
    INDEX 01 00:02:61
  TRACK 05 AUDIO
    TITLE "4:cjc044_2211"
    INDEX 01 00:03:45
  TRACK 06 AUDIO
    TITLE "0:"
    INDEX 01 00:04:58
  TRACK 07 AUDIO
    TITLE "5:cjc044_2212"
    INDEX 01 00:05:42
  TRACK 08 AUDIO
    TITLE "0:"
    INDEX 01 00:09:28
  TRACK 09 AUDIO
    TITLE "2:cjc044_2213"
    INDEX 01 00:11:11
  TRACK 10 AUDIO
    TITLE "0:"
    INDEX 01 00:12:26
  TRACK 11 AUDIO
    TITLE "3:cjc044_2214"
    INDEX 01 00:13:08
  TRACK 12 AUDIO
    TITLE "0:"
    INDEX 01 00:14:07
  TRACK 13 AUDIO
    TITLE "4:cjc044_2215"
    INDEX 01 00:14:68
  TRACK 14 AUDIO
    TITLE "0:"
    INDEX 01 00:16:10
  TRACK 15 AUDIO
    TITLE "5:cjc044_2216"
    INDEX 01 00:16:57
  TRACK 16 AUDIO
    TITLE "0:"
    INDEX 01 00:20:49
  TRACK 17 AUDIO
    TITLE "2:cjc044_2217"
    INDEX 01 00:22:29
  TRACK 18 AUDIO
    TITLE "0:"
    INDEX 01 00:23:38
  TRACK 19 AUDIO
    TITLE "3:cjc044_2218"
    INDEX 01 00:24:18
  TRACK 20 AUDIO
    TITLE "0:"
    INDEX 01 00:25:01
  TRACK 21 AUDIO
    TITLE "4:cjc044_2219"
    INDEX 01 00:25:60
  TRACK 22 AUDIO
    TITLE "0:"
    INDEX 01 00:26:67
  TRACK 23 AUDIO
    TITLE "5:cjc044_2220"
    INDEX 01 00:27:53
  TRACK 24 AUDIO
    TITLE "0:"
    INDEX 01 00:31:26
  TRACK 25 AUDIO
    TITLE "2:cjc044_2221"
    INDEX 01 00:33:13
  TRACK 26 AUDIO
    TITLE "0:"
    INDEX 01 00:34:32
  TRACK 27 AUDIO
    TITLE "3:cjc044_2222"
    INDEX 01 00:35:15
  TRACK 28 AUDIO
    TITLE "0:"
    INDEX 01 00:36:19
  TRACK 29 AUDIO
    TITLE "4:cjc044_2223"
    INDEX 01 00:37:08
  TRACK 30 AUDIO
    TITLE "0:"
    INDEX 01 00:38:30
  TRACK 31 AUDIO
    TITLE "5:cjc044_2224"
    INDEX 01 00:39:02
  TRACK 32 AUDIO
    TITLE "0:"
    INDEX 01 00:42:55
  TRACK 33 AUDIO
    TITLE "2:cjc044_2225"
    INDEX 01 00:44:44
  TRACK 34 AUDIO
    TITLE "0:"
    INDEX 01 00:45:67
  TRACK 35 AUDIO
    TITLE "3:cjc044_2226"
    INDEX 01 00:46:56
  TRACK 36 AUDIO
    TITLE "0:"
    INDEX 01 00:47:44
  TRACK 37 AUDIO
    TITLE "4:cjc044_2227"
    INDEX 01 00:48:28
  TRACK 38 AUDIO
    TITLE "0:"
    INDEX 01 00:49:49
  TRACK 39 AUDIO
    TITLE "5:cjc044_2228"
    INDEX 01 00:50:29
  TRACK 40 AUDIO
    TITLE "0:"
    INDEX 01 00:53:64
  TRACK 41 AUDIO
    TITLE "2:cjc044_2229"
    INDEX 01 00:55:50
  TRACK 42 AUDIO
    TITLE "0:"
    INDEX 01 00:56:65
  TRACK 43 AUDIO
    TITLE "3:cjc044_2230"
    INDEX 01 00:57:45
  TRACK 44 AUDIO
    TITLE "0:"
    INDEX 01 00:58:64
  TRACK 45 AUDIO
    TITLE "4:cjc044_2231"
    INDEX 01 00:59:49
  TRACK 46 AUDIO
    TITLE "0:"
    INDEX 01 01:00:64
  TRACK 47 AUDIO
    TITLE "5:cjc044_2232"
    INDEX 01 01:01:36
  TRACK 48 AUDIO
    TITLE "0:"
    INDEX 01 01:04:19
  TRACK 49 AUDIO
    TITLE "2:cjc044_2233"
    INDEX 01 01:06:08
  TRACK 50 AUDIO
    TITLE "0:"
    INDEX 01 01:07:17
  TRACK 51 AUDIO
    TITLE "3:cjc044_2234"
    INDEX 01 01:08:05
  TRACK 52 AUDIO
    TITLE "0:"
    INDEX 01 01:09:10
  TRACK 53 AUDIO
    TITLE "4:cjc044_2235"
    INDEX 01 01:09:69
  TRACK 54 AUDIO
    TITLE "0:"
    INDEX 01 01:11:05
  TRACK 55 AUDIO
    TITLE "5:cjc044_2236"
    INDEX 01 01:11:51
  TRACK 56 AUDIO
    TITLE "0:"
    INDEX 01 01:14:47
  TRACK 57 AUDIO
    TITLE "2:cjc044_2237"
    INDEX 01 01:16:26
  TRACK 58 AUDIO
    TITLE "0:"
    INDEX 01 01:17:28
  TRACK 59 AUDIO
    TITLE "3:cjc044_2238"
    INDEX 01 01:18:06
  TRACK 60 AUDIO
    TITLE "0:"
    INDEX 01 01:18:74
  TRACK 61 AUDIO
    TITLE "4:cjc044_2239"
    INDEX 01 01:19:50
  TRACK 62 AUDIO
    TITLE "0:"
    INDEX 01 01:20:53
  TRACK 63 AUDIO
    TITLE "5:cjc044_2240"
    INDEX 01 01:21:29
  TRACK 64 AUDIO
    TITLE "0:"
    INDEX 01 01:24:14
  TRACK 65 AUDIO
    TITLE "2:cjc044_2241"
    INDEX 01 01:25:70
  TRACK 66 AUDIO
    TITLE "0:"
    INDEX 01 01:27:18
  TRACK 67 AUDIO
    TITLE "3:cjc044_2242"
    INDEX 01 01:28:00
  TRACK 68 AUDIO
    TITLE "0:"
    INDEX 01 01:29:13
  TRACK 69 AUDIO
    TITLE "4:cjc044_2243"
    INDEX 01 01:29:70
  TRACK 70 AUDIO
    TITLE "0:"
    INDEX 01 01:31:16
  TRACK 71 AUDIO
    TITLE "5:cjc044_2244"
    INDEX 01 01:32:00
  TRACK 72 AUDIO
    TITLE "0:"
    INDEX 01 01:34:61
  TRACK 73 AUDIO
    TITLE "2:cjc044_2245"
    INDEX 01 01:36:45
  TRACK 74 AUDIO
    TITLE "0:"
    INDEX 01 01:37:68
  TRACK 75 AUDIO
    TITLE "3:cjc044_2246"
    INDEX 01 01:38:53
  TRACK 76 AUDIO
    TITLE "0:"
    INDEX 01 01:39:74
  TRACK 77 AUDIO
    TITLE "4:cjc044_2247"
    INDEX 01 01:40:54
  TRACK 78 AUDIO
    TITLE "0:"
    INDEX 01 01:42:02
  TRACK 79 AUDIO
    TITLE "5:cjc044_2248"
    INDEX 01 01:42:59
  TRACK 80 AUDIO
    TITLE "0:"
    INDEX 01 01:46:10
